<svg width="96" height="97" viewBox="0 0 96 97" fill="none" xmlns="http://www.w3.org/2000/svg">
<path d="M80.25 27C83.149 27.0002 85.9361 28.1195 88.03 30.1245C90.1239 32.1295 91.3629 34.8654 91.4888 37.7618L91.5 38.25V40.5C91.5004 41.6353 91.0716 42.7288 90.2996 43.5612C89.5277 44.3937 88.4696 44.9036 87.3375 44.9888L87 45H55.5C54.3647 45.0004 53.2712 44.5716 52.4388 43.7996C51.6063 43.0277 51.0964 41.9696 51.0113 40.8375L51 40.5V38.25C51.0002 35.351 52.1195 32.5639 54.1245 30.47C56.1295 28.3761 58.8654 27.1371 61.7618 27.0112L62.25 27H80.25ZM71.25 0C74.2337 0 77.0952 1.18526 79.205 3.29505C81.3147 5.40483 82.5 8.26631 82.5 11.25C82.5 14.2337 81.3147 17.0952 79.205 19.205C77.0952 21.3147 74.2337 22.5 71.25 22.5C68.2663 22.5 65.4048 21.3147 63.295 19.205C61.1853 17.0952 60 14.2337 60 11.25C60 8.26631 61.1853 5.40483 63.295 3.29505C65.4048 1.18526 68.2663 0 71.25 0Z" fill="#34A0A4"/>
<path d="M94.2115 52.9406C92.2449 50.3771 89.1784 50.5448 87.1119 52.9406L71.7127 70.6458C69.8295 72.826 67.4796 74 65.0464 74H45.3308C43.8642 74 42.6643 72.275 42.6643 70.1667C42.6643 68.0583 43.8642 66.3333 45.3308 66.3333H58.3801C61.03 66.3333 63.4965 63.7219 63.9298 59.9604C64.4798 55.1687 61.9132 51 58.6634 51H31.9982C27.4985 51 23.1487 53.2281 19.6489 57.301L11.8993 66.3333H2.66652C1.19993 66.3333 0 68.0583 0 70.1667L0 93.1667C0 95.275 1.19993 97 2.66652 97H62.1299C64.5464 97 66.8963 95.826 68.7962 93.6458L93.9948 64.6562C96.528 61.7573 96.728 56.199 94.2115 52.9406Z" fill="#34A0A4"/>
</svg>
