<svg width="76" height="75" viewBox="0 0 76 75" fill="none" xmlns="http://www.w3.org/2000/svg">
<path d="M23.7656 18.25C18.3064 18.2465 13.0128 20.0842 8.77548 23.4537C4.53821 26.8233 1.61606 31.519 0.500864 36.7505C-0.614328 41.982 0.145528 47.4298 2.65254 52.1772C5.15955 56.9245 9.26064 60.6814 14.2656 62.8156V74.05H33.2656V62.8156C38.2658 60.6778 42.3619 56.9201 44.8653 52.1741C47.3686 47.428 48.1267 41.983 47.0121 36.7542C45.8975 31.5254 42.9781 26.8316 38.7447 23.4618C34.5113 20.092 29.2219 18.2516 23.7656 18.25Z" fill="#34A0A4"/>
<path d="M59.4529 32V28L51.547 35L59.4529 42V38H65.3824V32H59.4529ZM75.2649 27L67.3589 20V24H61.4294V30H67.3589V34L75.2649 27ZM74.5929 13.46L70.6399 6.54C70.4027 6.1 69.8888 5.92 69.4342 6.1L64.5128 8.1C63.5047 7.28 62.4177 6.62 61.1725 6.1L60.4412 0.840004C60.401 0.604438 60.2798 0.390858 60.0989 0.237107C59.918 0.0833557 59.6892 -0.000639549 59.4529 3.66694e-06H51.547C51.0528 3.66694e-06 50.6378 0.360004 50.5587 0.840004L49.8274 6.14C48.5822 6.66 47.5149 7.32 46.4871 8.14L41.6645 6.1C41.2099 5.92 40.6762 6.1 40.4588 6.54L36.5058 13.46C36.2489 13.88 36.3477 14.44 36.7232 14.74L40.8146 18C40.7355 18.66 40.6762 19.34 40.6762 20C40.6762 20.66 40.7355 21.34 40.8146 22L36.6442 25.26C36.2489 25.56 36.1501 26.12 36.407 26.54L40.36 33.46C40.5774 34 41.1506 34.22 41.6645 34L46.6057 32C47.0801 32.38 47.594 32.74 48.1078 33.06L55.0453 27.06C53.2127 26.9326 51.5043 26.0766 50.2933 24.6788C49.0823 23.281 48.4672 21.4552 48.5822 19.6C48.8787 15.74 52.1794 12.82 55.9941 13.1C58.8402 13.28 61.2713 15.24 62.1212 18H70.1853L74.3557 14.74C74.7312 14.44 74.8301 13.88 74.5929 13.46Z" fill="#34A0A4"/>
</svg>
