<svg width="266" height="42" viewBox="0 0 266 42" fill="none" xmlns="http://www.w3.org/2000/svg">
<path d="M72.5625 12.8438C72.5625 13.5391 72.4766 14.1602 72.3047 14.707C72.1328 15.2539 71.8984 15.7383 71.6016 16.1602C71.3125 16.5742 70.9766 16.9297 70.5938 17.2266C70.2109 17.5234 69.8086 17.7695 69.3867 17.9648C68.9727 18.1523 68.5508 18.2891 68.1211 18.375C67.6992 18.4609 67.3008 18.5039 66.9258 18.5039L73.2891 24H68.5781L62.2266 18.5039H60.0352V15.457H66.9258C67.3086 15.4258 67.6562 15.3477 67.9688 15.2227C68.2891 15.0898 68.5625 14.9141 68.7891 14.6953C69.0234 14.4766 69.2031 14.2148 69.3281 13.9102C69.4531 13.5977 69.5156 13.2422 69.5156 12.8438V10.9219C69.5156 10.75 69.4922 10.6211 69.4453 10.5352C69.4062 10.4414 69.3516 10.375 69.2812 10.3359C69.2188 10.2891 69.1484 10.2617 69.0703 10.2539C69 10.2461 68.9336 10.2422 68.8711 10.2422H58.8164V24H55.7695V8.73047C55.7695 8.51953 55.8086 8.32031 55.8867 8.13281C55.9648 7.94531 56.0703 7.78125 56.2031 7.64062C56.3438 7.5 56.5078 7.39063 56.6953 7.3125C56.8828 7.23437 57.0859 7.19531 57.3047 7.19531H68.8711C69.5508 7.19531 70.125 7.32031 70.5938 7.57031C71.0625 7.8125 71.4414 8.12109 71.7305 8.49609C72.0273 8.86328 72.2383 9.26172 72.3633 9.69141C72.4961 10.1211 72.5625 10.5234 72.5625 10.8984V12.8438ZM88.7695 15.5273C88.7695 15.9492 88.6953 16.4062 88.5469 16.8984C88.3984 17.3828 88.1562 17.8359 87.8203 18.2578C87.4922 18.6719 87.0586 19.0195 86.5195 19.3008C85.9883 19.582 85.3398 19.7227 84.5742 19.7227H79.0781V16.8281H84.5742C84.9883 16.8281 85.3086 16.7031 85.5352 16.4531C85.7617 16.1953 85.875 15.8789 85.875 15.5039C85.875 15.1055 85.7461 14.793 85.4883 14.5664C85.2383 14.3398 84.9336 14.2266 84.5742 14.2266H79.0781C78.6641 14.2266 78.3438 14.3555 78.1172 14.6133C77.8906 14.8633 77.7773 15.1758 77.7773 15.5508V19.8047C77.7773 20.2109 77.9023 20.5273 78.1523 20.7539C78.4102 20.9805 78.7266 21.0938 79.1016 21.0938H84.5742V24H79.0781C78.6562 24 78.1992 23.9258 77.707 23.7773C77.2227 23.6289 76.7695 23.3906 76.3477 23.0625C75.9336 22.7266 75.5859 22.293 75.3047 21.7617C75.0234 21.2227 74.8828 20.5703 74.8828 19.8047V15.5273C74.8828 15.1055 74.957 14.6523 75.1055 14.168C75.2539 13.6758 75.4922 13.2227 75.8203 12.8086C76.1562 12.3867 76.5898 12.0352 77.1211 11.7539C77.6602 11.4727 78.3125 11.332 79.0781 11.332H84.5742C84.9961 11.332 85.4492 11.4062 85.9336 11.5547C86.4258 11.7031 86.8789 11.9453 87.293 12.2812C87.7148 12.6094 88.0664 13.043 88.3477 13.582C88.6289 14.1133 88.7695 14.7617 88.7695 15.5273ZM103.805 19.8047C103.805 20.2266 103.73 20.6836 103.582 21.1758C103.434 21.6602 103.191 22.1133 102.855 22.5352C102.527 22.9492 102.094 23.2969 101.555 23.5781C101.023 23.8594 100.375 24 99.6094 24H94.1133C93.6914 24 93.2344 23.9258 92.7422 23.7773C92.2578 23.6289 91.8047 23.3906 91.3828 23.0625C90.9688 22.7266 90.6211 22.293 90.3398 21.7617C90.0586 21.2227 89.918 20.5703 89.918 19.8047C89.918 19.3828 89.9922 18.9258 90.1406 18.4336C90.2891 17.9414 90.5273 17.4883 90.8555 17.0742C91.1914 16.6523 91.625 16.3008 92.1562 16.0195C92.6953 15.7383 93.3477 15.5977 94.1133 15.5977H99.6094V18.5039H94.1133C93.6992 18.5039 93.3789 18.6328 93.1523 18.8906C92.9258 19.1406 92.8125 19.4531 92.8125 19.8281C92.8125 20.2266 92.9414 20.5391 93.1992 20.7656C93.4648 20.9844 93.7773 21.0938 94.1367 21.0938H99.6094C100.023 21.0938 100.344 20.9688 100.57 20.7188C100.797 20.4688 100.91 20.1562 100.91 19.7812V15.5273C100.91 15.1289 100.785 14.8125 100.535 14.5781C100.293 14.3438 99.9844 14.2266 99.6094 14.2266H92.918V11.332H99.6094C100.031 11.332 100.484 11.4062 100.969 11.5547C101.461 11.7031 101.914 11.9453 102.328 12.2812C102.75 12.6094 103.102 13.043 103.383 13.582C103.664 14.1133 103.805 14.7617 103.805 15.5273V19.8047ZM111.973 24H110.613C110.176 24 109.707 23.9258 109.207 23.7773C108.715 23.6289 108.254 23.3867 107.824 23.0508C107.395 22.707 107.039 22.2656 106.758 21.7266C106.477 21.1797 106.336 20.5117 106.336 19.7227V5.97656H109.383V19.7227C109.383 20.0977 109.5 20.3984 109.734 20.625C109.969 20.8438 110.262 20.9531 110.613 20.9531H111.973V24ZM124.98 14.3789H119.66V24H116.578V14.3789H112.617V11.332H116.578V7.19531H119.66V11.332H124.98V14.3789ZM140.953 25.2188C140.953 25.7422 140.887 26.2109 140.754 26.625C140.621 27.0469 140.445 27.4141 140.227 27.7266C140.008 28.0469 139.754 28.3164 139.465 28.5352C139.176 28.7617 138.871 28.9453 138.551 29.0859C138.238 29.2266 137.922 29.3281 137.602 29.3906C137.281 29.4609 136.977 29.4961 136.688 29.4961H131.191V26.4492H136.688C137.094 26.4492 137.398 26.3438 137.602 26.1328C137.805 25.9219 137.906 25.6172 137.906 25.2188V11.332H140.953V25.2188ZM136.688 24H131.191C130.754 24 130.285 23.9258 129.785 23.7773C129.293 23.6289 128.832 23.3867 128.402 23.0508C127.973 22.707 127.617 22.2656 127.336 21.7266C127.055 21.1797 126.914 20.5117 126.914 19.7227V11.332H129.961V19.7227C129.961 20.1211 130.066 20.4258 130.277 20.6367C130.488 20.8477 130.801 20.9531 131.215 20.9531H136.688V24ZM159.246 24H148.254C147.973 24 147.668 23.9688 147.34 23.9062C147.02 23.8359 146.699 23.7305 146.379 23.5898C146.066 23.4492 145.766 23.2695 145.477 23.0508C145.188 22.8242 144.93 22.5547 144.703 22.2422C144.484 21.9219 144.309 21.5547 144.176 21.1406C144.043 20.7188 143.977 20.2461 143.977 19.7227V11.4727C143.977 11.1914 144.008 10.8906 144.07 10.5703C144.141 10.2422 144.246 9.92188 144.387 9.60938C144.527 9.28906 144.711 8.98438 144.938 8.69531C145.164 8.40625 145.434 8.15234 145.746 7.93359C146.066 7.70703 146.434 7.52734 146.848 7.39453C147.262 7.26172 147.73 7.19531 148.254 7.19531H159.246V10.2422H148.254C147.855 10.2422 147.551 10.3477 147.34 10.5586C147.129 10.7695 147.023 11.082 147.023 11.4961V19.7227C147.023 20.1133 147.129 20.418 147.34 20.6367C147.559 20.8477 147.863 20.9531 148.254 20.9531H159.246V24ZM175.254 15.5273C175.254 15.9492 175.18 16.4062 175.031 16.8984C174.883 17.3828 174.641 17.8359 174.305 18.2578C173.977 18.6719 173.543 19.0195 173.004 19.3008C172.473 19.582 171.824 19.7227 171.059 19.7227H165.562V16.8281H171.059C171.473 16.8281 171.793 16.7031 172.02 16.4531C172.246 16.1953 172.359 15.8789 172.359 15.5039C172.359 15.1055 172.23 14.793 171.973 14.5664C171.723 14.3398 171.418 14.2266 171.059 14.2266H165.562C165.148 14.2266 164.828 14.3555 164.602 14.6133C164.375 14.8633 164.262 15.1758 164.262 15.5508V19.8047C164.262 20.2109 164.387 20.5273 164.637 20.7539C164.895 20.9805 165.211 21.0938 165.586 21.0938H171.059V24H165.562C165.141 24 164.684 23.9258 164.191 23.7773C163.707 23.6289 163.254 23.3906 162.832 23.0625C162.418 22.7266 162.07 22.293 161.789 21.7617C161.508 21.2227 161.367 20.5703 161.367 19.8047V15.5273C161.367 15.1055 161.441 14.6523 161.59 14.168C161.738 13.6758 161.977 13.2227 162.305 12.8086C162.641 12.3867 163.074 12.0352 163.605 11.7539C164.145 11.4727 164.797 11.332 165.562 11.332H171.059C171.48 11.332 171.934 11.4062 172.418 11.5547C172.91 11.7031 173.363 11.9453 173.777 12.2812C174.199 12.6094 174.551 13.043 174.832 13.582C175.113 14.1133 175.254 14.7617 175.254 15.5273ZM191.344 24H188.297V16.9688C188.297 16.5703 188.227 16.2148 188.086 15.9023C187.953 15.582 187.77 15.3086 187.535 15.082C187.301 14.8555 187.023 14.6836 186.703 14.5664C186.391 14.4414 186.051 14.3789 185.684 14.3789H180.352V24H177.305V12.8438C177.305 12.6328 177.344 12.4375 177.422 12.2578C177.5 12.0703 177.609 11.9102 177.75 11.7773C177.891 11.6367 178.055 11.5273 178.242 11.4492C178.43 11.3711 178.629 11.332 178.84 11.332H185.707C186.09 11.332 186.492 11.375 186.914 11.4609C187.344 11.5469 187.766 11.6875 188.18 11.8828C188.602 12.0703 189 12.3125 189.375 12.6094C189.758 12.8984 190.094 13.2539 190.383 13.6758C190.68 14.0898 190.914 14.5703 191.086 15.1172C191.258 15.6641 191.344 16.2812 191.344 16.9688V24ZM205.16 14.3789H199.84V24H196.758V14.3789H192.797V11.332H196.758V7.19531H199.84V11.332H205.16V14.3789ZM218.18 14.3789H211.324C210.91 14.3789 210.598 14.4844 210.387 14.6953C210.176 14.8984 210.07 15.1992 210.07 15.5977V24H207.023V15.5977C207.023 15.0742 207.09 14.6055 207.223 14.1914C207.355 13.7773 207.531 13.4141 207.75 13.1016C207.977 12.7812 208.234 12.5117 208.523 12.293C208.812 12.0664 209.113 11.8828 209.426 11.7422C209.746 11.6016 210.066 11.5 210.387 11.4375C210.715 11.3672 211.02 11.332 211.301 11.332H218.18V14.3789ZM232.289 19.8047C232.289 20.2266 232.215 20.6836 232.066 21.1758C231.918 21.6602 231.676 22.1133 231.34 22.5352C231.012 22.9492 230.578 23.2969 230.039 23.5781C229.508 23.8594 228.859 24 228.094 24H222.598C222.176 24 221.719 23.9258 221.227 23.7773C220.742 23.6289 220.289 23.3906 219.867 23.0625C219.453 22.7266 219.105 22.293 218.824 21.7617C218.543 21.2227 218.402 20.5703 218.402 19.8047C218.402 19.3828 218.477 18.9258 218.625 18.4336C218.773 17.9414 219.012 17.4883 219.34 17.0742C219.676 16.6523 220.109 16.3008 220.641 16.0195C221.18 15.7383 221.832 15.5977 222.598 15.5977H228.094V18.5039H222.598C222.184 18.5039 221.863 18.6328 221.637 18.8906C221.41 19.1406 221.297 19.4531 221.297 19.8281C221.297 20.2266 221.426 20.5391 221.684 20.7656C221.949 20.9844 222.262 21.0938 222.621 21.0938H228.094C228.508 21.0938 228.828 20.9688 229.055 20.7188C229.281 20.4688 229.395 20.1562 229.395 19.7812V15.5273C229.395 15.1289 229.27 14.8125 229.02 14.5781C228.777 14.3438 228.469 14.2266 228.094 14.2266H221.402V11.332H228.094C228.516 11.332 228.969 11.4062 229.453 11.5547C229.945 11.7031 230.398 11.9453 230.812 12.2812C231.234 12.6094 231.586 13.043 231.867 13.582C232.148 14.1133 232.289 14.7617 232.289 15.5273V19.8047ZM240.457 24H239.098C238.66 24 238.191 23.9258 237.691 23.7773C237.199 23.6289 236.738 23.3867 236.309 23.0508C235.879 22.707 235.523 22.2656 235.242 21.7266C234.961 21.1797 234.82 20.5117 234.82 19.7227V5.97656H237.867V19.7227C237.867 20.0977 237.984 20.3984 238.219 20.625C238.453 20.8438 238.746 20.9531 239.098 20.9531H240.457V24Z" fill="url(#paint0_linear_10_42)"/>
<path d="M21.0198 0.930542C18.7961 2.73386 16.6871 4.74013 14.7484 6.89861C13.7607 7.9979 12.803 9.15276 11.9021 10.3308L11.6444 10.6681L11.3063 10.4265C7.81481 7.93653 4.01351 6.05831 0 4.83919V13.4412C2.43184 14.3733 4.76028 15.6171 6.92417 17.1406L7.28159 17.3924L7.06624 17.7886C3.11028 25.057 0.746323 32.9902 0.0373161 41.3782H7.72939C8.35432 35.0743 10.0862 29.0507 12.8795 23.4677L13.1861 22.855L13.6132 23.3769C17.7881 28.4781 20.4789 34.6945 21.4091 41.3782H29.1039C28.042 31.9446 24.0496 23.0275 17.829 16.2167L17.5462 15.907L17.8025 15.5717C18.7107 14.3825 19.6854 13.2223 20.7006 12.123L21.0198 11.7775L21.339 12.123C28.6192 20.0051 33.2159 30.3795 34.3102 41.3777H42C40.9043 28.4761 35.6931 16.2496 27.2907 6.89764C25.353 4.74061 23.2444 2.73435 21.0198 0.930542Z" fill="url(#paint1_linear_10_42)"/>
<defs>
<linearGradient id="paint0_linear_10_42" x1="54" y1="6.31579" x2="256.493" y2="6.3158" gradientUnits="userSpaceOnUse">
<stop stop-color="#091F3F"/>
<stop offset="1" stop-color="#527895"/>
</linearGradient>
<linearGradient id="paint1_linear_10_42" x1="-1.8109" y1="40.4543" x2="44.5112" y2="41.0696" gradientUnits="userSpaceOnUse">
<stop stop-color="#091F3F"/>
<stop offset="1" stop-color="#527895"/>
</linearGradient>
</defs>
</svg>
