<svg width="80" height="90" viewBox="0 0 80 90" fill="none" xmlns="http://www.w3.org/2000/svg">
<path d="M50 16.875H30L22.5938 4.37695C21.4844 2.49609 22.6719 0 24.6719 0H55.3281C57.3281 0 58.5156 2.49609 57.4062 4.37695L50 16.875ZM30 22.5H50C50.5938 22.9395 51.2656 23.4316 52.0312 23.9766C60.8906 30.3574 80 44.1035 80 73.125C80 82.4414 73.2812 90 65 90H15C6.71875 90 0 82.4414 0 73.125C0 44.1035 19.1094 30.3574 27.9688 23.9766C28.7188 23.4316 29.4062 22.9395 30 22.5ZM43.125 37.9688C43.125 36.0352 41.7188 34.4531 40 34.4531C38.2812 34.4531 36.875 36.0352 36.875 37.9688V40.4297C35.6875 40.7285 34.5 41.2031 33.4062 41.9238C31.2344 43.3828 29.3594 45.9316 29.375 49.6406C29.3906 53.209 31.25 55.459 33.2344 56.7949C34.9531 57.9551 37.0938 58.6934 38.7969 59.2559L39.0625 59.3438C41.0312 60.0117 42.4688 60.5391 43.4375 61.2246C44.2344 61.7871 44.3438 62.1738 44.3594 62.666C44.375 63.5449 44.0781 64.0723 43.4375 64.5117C42.6562 65.0566 41.4219 65.3906 40.0938 65.3379C38.3594 65.2676 36.7344 64.6523 34.6094 63.8438C34.25 63.7031 33.875 63.5625 33.4844 63.4219C31.8438 62.8066 30.0781 63.8086 29.5312 65.6367C28.9844 67.4648 29.875 69.4688 31.5 70.084C31.7969 70.1895 32.125 70.3125 32.4531 70.4531C33.75 70.9629 35.25 71.543 36.8594 71.9297V74.5312C36.8594 76.4648 38.2656 78.0469 39.9844 78.0469C41.7031 78.0469 43.1094 76.4648 43.1094 74.5312V72.1055C44.3594 71.8066 45.6094 71.3145 46.7344 70.5234C48.9688 68.959 50.6562 66.2871 50.6094 62.6133C50.5625 59.0449 48.7812 56.7422 46.7656 55.3008C44.9688 54.0352 42.7188 53.2617 40.9688 52.6641L40.8594 52.6289C38.8594 51.9434 37.4375 51.4512 36.4375 50.7832C35.625 50.2383 35.6094 49.9219 35.6094 49.6055C35.6094 48.9551 35.8281 48.4629 36.5781 47.9707C37.4219 47.4082 38.7031 47.0742 39.9375 47.0918C41.4375 47.1094 43.0938 47.4785 44.8125 48.0059C46.4844 48.498 48.1875 47.3906 48.6406 45.5098C49.0938 43.6289 48.0938 41.7129 46.4219 41.2031C45.4062 40.9043 44.2812 40.6055 43.125 40.377V37.9688Z" fill="#34A0A4"/>
</svg>
