<svg xmlns="http://www.w3.org/2000/svg" viewBox="0 0 500 500"><g id="freepik--background-simple--inject-67"><path d="M464.86,277.39c-14.73,39.43-44.81,82.11-87.14,94.75-64,19.1-71.6,70.65-186.16,65.87A230.92,230.92,0,0,1,142,430.75,194.41,194.41,0,0,1,118.73,423C51.8,395.89,16.89,336.23,14,273.81c-3.82-82.11,53.46-121.24,90.69-144.15S186.79,18,299.44,21.77a224.06,224.06,0,0,1,50.92,7.44c37.91,10.26,76.44,32.95,98.84,66.12q2.52,3.75,4.82,7.64C484,153.82,484.93,223.63,464.86,277.39Z" style="fill:#091F3F"></path><path d="M464.86,277.39c-14.73,39.43-44.81,82.11-87.14,94.75-64,19.1-71.6,70.65-186.16,65.87A230.92,230.92,0,0,1,142,430.75,194.41,194.41,0,0,1,118.73,423C51.8,395.89,16.89,336.23,14,273.81c-3.82-82.11,53.46-121.24,90.69-144.15S186.79,18,299.44,21.77a224.06,224.06,0,0,1,50.92,7.44c37.91,10.26,76.44,32.95,98.84,66.12q2.52,3.75,4.82,7.64C484,153.82,484.93,223.63,464.86,277.39Z" style="fill:#fff;opacity:0.7000000000000001"></path></g><g id="freepik--Pictures--inject-67"><g style="opacity:0.30000000000000004"><rect x="396.25" y="109.32" width="76.75" height="107.45" style="fill:none;stroke:#000;stroke-miterlimit:10"></rect><rect x="398.86" y="112.97" width="71.53" height="100.14" style="fill:none;stroke:#000;stroke-miterlimit:10"></rect><rect x="417.65" y="139.29" width="33.94" height="47.51" style="fill:none;stroke:#000;stroke-miterlimit:10"></rect></g><g style="opacity:0.30000000000000004"><rect x="344.37" y="110" width="41.43" height="58" style="fill:none;stroke:#000;stroke-miterlimit:10"></rect><rect x="345.78" y="111.97" width="38.61" height="54.05" style="fill:none;stroke:#000;stroke-miterlimit:10"></rect><rect x="355.93" y="126.18" width="18.32" height="25.65" style="fill:none;stroke:#000;stroke-miterlimit:10"></rect></g></g><g id="freepik--Plant--inject-67"><line x1="397.17" y1="434.2" x2="397.17" y2="356.72" style="fill:none;stroke:#5e5e5e;stroke-miterlimit:10;stroke-width:4px"></line><line x1="387.53" y1="435.77" x2="387.53" y2="328.76" style="fill:none;stroke:#5e5e5e;stroke-miterlimit:10;stroke-width:4px"></line><line x1="409.39" y1="436.29" x2="409.39" y2="398.71" style="fill:none;stroke:#5e5e5e;stroke-miterlimit:10;stroke-width:4px"></line><path d="M383.78,339.31s-1.93-3.54-8.38-11.28-33.21-28.7-33.21-28.7,15.16,8.06,20,12.25,11.29,9.35,11.29,9.35-18.06-19.66-20-20.95,18.37,15.47,18.37,15.47-7.73-15.47-11.6-20.63S349,277.41,349,277.41s21,28,21.93,29.66,5.16,8.71,5.16,8.71l-7.42-19.35,9,15.8s-12.9-26.76-13.54-28.05,9,12.57,9,12.57l-8.38-25.14,19.35,39.65-1.29-15.47,3.54,16.12,1-39.66,2.26,39.33s3.54-25.14,4.19-30.3,1-10.64,1-10.64-.65,34.17-.65,35.14-.64,8.71-.64,8.71l6.12-18.38c1.29-3.87,2.58-17.09,3.23-19s-3.23,29.66-3.55,31a36.31,36.31,0,0,1-2.26,6.12c-1,1.94,7.1-11.6,10-17.41L415.38,280s-4.84,16.12-6.13,19-9.67,18.38-9.67,18.38,12.58-14.83,18.06-18.7,15.47-11.29,15.47-11.29S417,304.81,413.77,308s-12.58,14.51-12.58,14.51,16.12-10.32,17.09-11.29,12.58-8.38,12.58-8.38-23.41,18.49-24.51,19.67c-9.35,10-12.57,14.83-14.51,16.76A5.36,5.36,0,0,1,383.78,339.31Z" style="fill:#091F3F"></path><path d="M394.91,367.58a59.52,59.52,0,0,0-5.93-8c-4.56-5.47-23.49-20.29-23.49-20.29s10.72,5.7,14.14,8.66,8,6.62,8,6.62-12.77-13.91-14.14-14.83,13,10.95,13,10.95-5.47-10.95-8.21-14.6-8-12.31-8-12.31,14.82,19.84,15.51,21l3.65,6.16-5.25-13.69,6.39,11.18s-9.12-18.93-9.58-19.84,6.39,8.89,6.39,8.89l-5.93-17.79,13.68,28.05-.91-10.94,2.51,11.4.68-28.05L399,348s2.5-17.79,3-21.43.68-7.53.68-7.53-.45,24.17-.45,24.86-.46,6.16-.46,6.16l4.34-13c.91-2.74,1.82-12.09,2.28-13.46s-2.28,21-2.51,21.89a25.67,25.67,0,0,1-1.6,4.34c-.68,1.37,5-8.21,7.07-12.32l5.93-11.86s-3.42,11.41-4.33,13.46-6.84,13-6.84,13,8.89-10.49,12.77-13.23,10.94-8,10.94-8-11.4,12.31-13.68,14.59-8.89,10.27-8.89,10.27,11.4-7.3,12.08-8,8.9-5.92,8.9-5.92-16.56,13.07-17.34,13.91c-6.61,7.07-8.89,10.49-10.26,11.86A3.8,3.8,0,0,1,394.91,367.58Z" style="fill:#091F3F"></path><path d="M406.52,400.14a59.18,59.18,0,0,0-5.93-8c-4.56-5.48-23.49-20.3-23.49-20.3s10.72,5.7,14.14,8.67,8,6.61,8,6.61-12.77-13.91-14.14-14.82,13,10.94,13,10.94-5.47-10.94-8.21-14.59-8-12.32-8-12.32,14.82,19.84,15.51,21,3.64,6.16,3.64,6.16l-5.24-13.68L402.18,381s-9.12-18.93-9.57-19.84S399,370,399,370l-5.93-17.79,13.69,28.05-.92-10.95,2.51,11.4L409,352.7l1.59,27.83s2.51-17.79,3-21.44.68-7.53.68-7.53-.45,24.18-.45,24.86-.46,6.16-.46,6.16l4.33-13c.91-2.74,1.83-12.09,2.28-13.46s-2.28,21-2.51,21.9a25.77,25.77,0,0,1-1.59,4.33c-.69,1.37,5-8.21,7.07-12.31l5.93-11.86s-3.42,11.4-4.34,13.45-6.84,13-6.84,13,8.9-10.49,12.77-13.23,11-8,11-8S430,375.74,427.73,378s-8.9,10.26-8.9,10.26,11.41-7.3,12.09-8,8.89-5.93,8.89-5.93-16.55,13.08-17.33,13.91c-6.61,7.07-8.89,10.49-10.26,11.86A3.79,3.79,0,0,1,406.52,400.14Z" style="fill:#091F3F"></path><path d="M418.23,482.26A78.73,78.73,0,0,0,421,461.37c0-1.33,0-2.65-.09-3.95a80.4,80.4,0,0,0-1.05-9.83c-.2-1.19-.43-2.36-.68-3.51-.21-.95-.44-1.89-.68-2.81A54.73,54.73,0,0,0,414,429.58H380.54a55.26,55.26,0,0,0-4.46,11.69c-.25.92-.47,1.86-.68,2.81-.26,1.15-.48,2.32-.69,3.51a80.43,80.43,0,0,0-1,9.83c-.07,1.3-.09,2.62-.09,3.95a78.32,78.32,0,0,0,2.72,20.89Z" style="fill:#fff;stroke:#263238;stroke-miterlimit:10"></path><path d="M418.45,441.27H376.08c-.25.92-.47,1.86-.68,2.81h43.73C418.92,443.13,418.69,442.19,418.45,441.27Zm1.36,6.32h-45.1a80.43,80.43,0,0,0-1,9.83h47.19A80.4,80.4,0,0,0,419.81,447.59Z" style="fill:#263238;stroke:#263238;stroke-miterlimit:10"></path></g><g id="freepik--Screen--inject-67"><path d="M41.58,20H318.81a0,0,0,0,1,0,0v290.2a0,0,0,0,1,0,0H35.88a0,0,0,0,1,0,0V25.69a5.7,5.7,0,0,1,5.7-5.7Z" style="fill:#263238;stroke:#263238;stroke-miterlimit:10"></path><path d="M50.16,10H325.72a5.5,5.5,0,0,1,5.5,5.5V301.62a0,0,0,0,1,0,0H44.66a0,0,0,0,1,0,0V15.5a5.5,5.5,0,0,1,5.5-5.5Z" style="fill:#fff;stroke:#263238;stroke-miterlimit:10"></path><path d="M50.16,10h63.19a5.5,5.5,0,0,1,5.5,5.5V301.62a0,0,0,0,1,0,0H44.66a0,0,0,0,1,0,0V15.5A5.5,5.5,0,0,1,50.16,10Z" style="fill:#ababab"></path><path d="M50.16,10H325.72a5.5,5.5,0,0,1,5.5,5.5V41.65a0,0,0,0,1,0,0H44.66a0,0,0,0,1,0,0V15.5A5.5,5.5,0,0,1,50.16,10Z" style="fill:#091F3F;stroke:#263238;stroke-miterlimit:10"></path><path d="M50.16,10H325.72a5.5,5.5,0,0,1,5.5,5.5V30.42a0,0,0,0,1,0,0H44.66a0,0,0,0,1,0,0V15.5A5.5,5.5,0,0,1,50.16,10Z" style="fill:#263238;stroke:#263238;stroke-miterlimit:10"></path><path d="M292.7,20.83a4.36,4.36,0,1,0-4.36,4.36A4.37,4.37,0,0,0,292.7,20.83Z" style="fill:#fff;stroke:#263238;stroke-miterlimit:10"></path><path d="M309.42,20.83a4.36,4.36,0,1,0-4.36,4.36A4.37,4.37,0,0,0,309.42,20.83Z" style="fill:#fff;stroke:#263238;stroke-miterlimit:10"></path><path d="M326.15,20.83a4.37,4.37,0,1,0-4.37,4.36A4.37,4.37,0,0,0,326.15,20.83Z" style="fill:#fff;stroke:#263238;stroke-miterlimit:10"></path><line x1="140.63" y1="40.97" x2="140.63" y2="34.16" style="fill:none;stroke:#263238;stroke-miterlimit:10"></line><line x1="182.83" y1="40.97" x2="182.83" y2="34.16" style="fill:none;stroke:#263238;stroke-miterlimit:10"></line><line x1="225.04" y1="40.97" x2="225.04" y2="34.16" style="fill:none;stroke:#263238;stroke-miterlimit:10"></line><line x1="267.24" y1="40.97" x2="267.24" y2="34.16" style="fill:none;stroke:#263238;stroke-miterlimit:10"></line><line x1="309.44" y1="40.97" x2="309.44" y2="34.16" style="fill:none;stroke:#263238;stroke-miterlimit:10"></line><rect x="133.83" y="68" width="181.06" height="179.7" style="fill:#fff;stroke:#263238;stroke-miterlimit:10"></rect><line x1="235.21" y1="113.24" x2="259.59" y2="113.24" style="fill:none;stroke:#263238;stroke-miterlimit:10"></line><line x1="235.21" y1="131.16" x2="259.59" y2="131.16" style="fill:none;stroke:#263238;stroke-miterlimit:10"></line><line x1="235.21" y1="149.07" x2="259.59" y2="149.07" style="fill:none;stroke:#263238;stroke-miterlimit:10"></line><line x1="188.43" y1="188.51" x2="200.32" y2="188.51" style="fill:none;stroke:#263238;stroke-miterlimit:10"></line><line x1="160.66" y1="188.51" x2="185.72" y2="188.51" style="fill:none;stroke:#263238;stroke-miterlimit:10"></line><line x1="148.8" y1="188.51" x2="157.27" y2="188.51" style="fill:none;stroke:#263238;stroke-miterlimit:10"></line><line x1="169.13" y1="194.02" x2="200.32" y2="194.02" style="fill:none;stroke:#263238;stroke-miterlimit:10"></line><line x1="148.8" y1="194.02" x2="166.42" y2="194.02" style="fill:none;stroke:#263238;stroke-miterlimit:10"></line><line x1="187.42" y1="199.52" x2="200.32" y2="199.52" style="fill:none;stroke:#263238;stroke-miterlimit:10"></line><line x1="163.37" y1="199.52" x2="184.03" y2="199.52" style="fill:none;stroke:#263238;stroke-miterlimit:10"></line><line x1="148.8" y1="199.52" x2="160.32" y2="199.52" style="fill:none;stroke:#263238;stroke-miterlimit:10"></line><line x1="148.8" y1="205.02" x2="200.32" y2="205.02" style="fill:none;stroke:#263238;stroke-miterlimit:10"></line><line x1="170.14" y1="210.52" x2="200.32" y2="210.52" style="fill:none;stroke:#263238;stroke-miterlimit:10"></line><line x1="148.8" y1="210.52" x2="166.42" y2="210.52" style="fill:none;stroke:#263238;stroke-miterlimit:10"></line><line x1="191.48" y1="216.03" x2="200.32" y2="216.03" style="fill:none;stroke:#263238;stroke-miterlimit:10"></line><line x1="148.8" y1="216.03" x2="188.77" y2="216.03" style="fill:none;stroke:#263238;stroke-miterlimit:10"></line><line x1="192.84" y1="221.53" x2="200.32" y2="221.53" style="fill:none;stroke:#263238;stroke-miterlimit:10"></line><line x1="162.35" y1="221.53" x2="190.81" y2="221.53" style="fill:none;stroke:#263238;stroke-miterlimit:10"></line><line x1="148.8" y1="221.53" x2="160.32" y2="221.53" style="fill:none;stroke:#263238;stroke-miterlimit:10"></line><line x1="194.19" y1="227.03" x2="200.32" y2="227.03" style="fill:none;stroke:#263238;stroke-miterlimit:10"></line><line x1="173.87" y1="227.03" x2="190.47" y2="227.03" style="fill:none;stroke:#263238;stroke-miterlimit:10"></line><line x1="148.8" y1="227.03" x2="171.5" y2="227.03" style="fill:none;stroke:#263238;stroke-miterlimit:10"></line><line x1="295.89" y1="108.3" x2="304.84" y2="108.3" style="fill:none;stroke:#263238;stroke-miterlimit:10"></line><line x1="274.97" y1="108.3" x2="293.85" y2="108.3" style="fill:none;stroke:#263238;stroke-miterlimit:10"></line><line x1="266.04" y1="108.3" x2="272.42" y2="108.3" style="fill:none;stroke:#263238;stroke-miterlimit:10"></line><line x1="281.35" y1="114.78" x2="304.84" y2="114.78" style="fill:none;stroke:#263238;stroke-miterlimit:10"></line><line x1="266.04" y1="114.78" x2="279.31" y2="114.78" style="fill:none;stroke:#263238;stroke-miterlimit:10"></line><line x1="295.12" y1="121.26" x2="304.84" y2="121.26" style="fill:none;stroke:#263238;stroke-miterlimit:10"></line><line x1="277.01" y1="121.26" x2="292.57" y2="121.26" style="fill:none;stroke:#263238;stroke-miterlimit:10"></line><line x1="266.04" y1="121.26" x2="274.71" y2="121.26" style="fill:none;stroke:#263238;stroke-miterlimit:10"></line><line x1="266.04" y1="127.74" x2="304.84" y2="127.74" style="fill:none;stroke:#263238;stroke-miterlimit:10"></line><line x1="282.11" y1="134.21" x2="304.84" y2="134.21" style="fill:none;stroke:#263238;stroke-miterlimit:10"></line><line x1="266.04" y1="134.21" x2="279.31" y2="134.21" style="fill:none;stroke:#263238;stroke-miterlimit:10"></line><line x1="298.18" y1="140.69" x2="304.84" y2="140.69" style="fill:none;stroke:#263238;stroke-miterlimit:10"></line><line x1="266.04" y1="140.69" x2="296.14" y2="140.69" style="fill:none;stroke:#263238;stroke-miterlimit:10"></line><line x1="299.2" y1="147.17" x2="304.84" y2="147.17" style="fill:none;stroke:#263238;stroke-miterlimit:10"></line><line x1="276.24" y1="147.17" x2="297.67" y2="147.17" style="fill:none;stroke:#263238;stroke-miterlimit:10"></line><line x1="266.04" y1="147.17" x2="274.71" y2="147.17" style="fill:none;stroke:#263238;stroke-miterlimit:10"></line><line x1="300.23" y1="153.65" x2="304.84" y2="153.65" style="fill:none;stroke:#263238;stroke-miterlimit:10"></line><line x1="284.92" y1="153.65" x2="297.42" y2="153.65" style="fill:none;stroke:#263238;stroke-miterlimit:10"></line><line x1="266.04" y1="153.65" x2="283.13" y2="153.65" style="fill:none;stroke:#263238;stroke-miterlimit:10"></line><path d="M175,160.38a28.33,28.33,0,0,1-13.67-3.52l3.72-6.73a20.55,20.55,0,0,0,27.5-28.66l6.56-4A28.23,28.23,0,0,1,175,160.38Z" style="fill:#091F3F;stroke:#263238;stroke-miterlimit:10"></path><path d="M161.32,156.86a28.24,28.24,0,0,1,8-52.38l1.52,7.54A20.55,20.55,0,0,0,165,150.13Z" style="fill:#263238;stroke:#263238;stroke-miterlimit:10"></path><path d="M192.54,121.47A20.43,20.43,0,0,0,175,111.61a20.83,20.83,0,0,0-4.11.41l-1.52-7.54a28.59,28.59,0,0,1,5.63-.56,28.05,28.05,0,0,1,24.11,13.55Z" style="fill:#ababab;stroke:#263238;stroke-miterlimit:10"></path><rect x="221.77" y="108.76" width="8.46" height="8.46" style="fill:#091F3F;stroke:#263238;stroke-miterlimit:10"></rect><rect x="221.77" y="126.93" width="8.46" height="8.46" style="fill:#263238;stroke:#263238;stroke-miterlimit:10"></rect><rect x="221.77" y="145.09" width="8.46" height="8.46" style="fill:#ababab;stroke:#263238;stroke-miterlimit:10"></rect><rect x="219.33" y="195.02" width="12.51" height="33.51" style="fill:#263238"></rect><rect x="235.84" y="180.01" width="12.51" height="48.52" style="fill:#091F3F;stroke:#263238;stroke-miterlimit:10"></rect><rect x="252.35" y="202.52" width="12.51" height="26.01" style="fill:#263238"></rect><rect x="268.85" y="187.01" width="12.51" height="41.52" style="fill:#091F3F;stroke:#263238;stroke-miterlimit:10"></rect><rect x="285.36" y="173.51" width="12.51" height="55.02" style="fill:#263238"></rect><rect x="198.49" y="80.94" width="63.98" height="6.13" style="fill:#263238"></rect><rect x="52.83" y="60.35" width="57.86" height="61.94" style="fill:#fff;stroke:#263238;stroke-miterlimit:10"></rect><path d="M81.75,101.84a16.05,16.05,0,0,1-7.76-2L76.11,96A11.67,11.67,0,0,0,91.72,79.74l3.73-2.27a16,16,0,0,1-13.7,24.37Z" style="fill:#091F3F"></path><path d="M74,99.83a16,16,0,0,1,4.57-29.74l.86,4.28A11.67,11.67,0,0,0,76.11,96Z" style="fill:#263238"></path><path d="M91.72,79.74a11.58,11.58,0,0,0-10-5.6,12.11,12.11,0,0,0-2.33.23l-.86-4.28a16.2,16.2,0,0,1,3.19-.32,15.94,15.94,0,0,1,13.7,7.7Z" style="fill:#ababab"></path><line x1="92.2" y1="107.41" x2="101.15" y2="107.41" style="fill:none;stroke:#263238;stroke-miterlimit:10"></line><line x1="71.28" y1="107.41" x2="90.16" y2="107.41" style="fill:none;stroke:#263238;stroke-miterlimit:10"></line><line x1="62.35" y1="107.41" x2="68.73" y2="107.41" style="fill:none;stroke:#263238;stroke-miterlimit:10"></line><line x1="77.66" y1="110.46" x2="101.15" y2="110.46" style="fill:none;stroke:#263238;stroke-miterlimit:10"></line><line x1="62.35" y1="110.46" x2="75.62" y2="110.46" style="fill:none;stroke:#263238;stroke-miterlimit:10"></line><line x1="91.44" y1="113.52" x2="101.15" y2="113.52" style="fill:none;stroke:#263238;stroke-miterlimit:10"></line><line x1="73.32" y1="113.52" x2="88.89" y2="113.52" style="fill:none;stroke:#263238;stroke-miterlimit:10"></line><line x1="62.35" y1="113.52" x2="71.03" y2="113.52" style="fill:none;stroke:#263238;stroke-miterlimit:10"></line><rect x="52.83" y="144.24" width="57.86" height="61.94" style="fill:#fff;stroke:#263238;stroke-miterlimit:10"></rect><line x1="93.32" y1="151.06" x2="104.13" y2="151.06" style="fill:none;stroke:#263238;stroke-miterlimit:10"></line><line x1="68.05" y1="151.06" x2="79.55" y2="151.06" style="fill:none;stroke:#263238;stroke-miterlimit:10"></line><line x1="57.27" y1="151.06" x2="64.97" y2="151.06" style="fill:none;stroke:#263238;stroke-miterlimit:10"></line><line x1="75.76" y1="157.54" x2="79.37" y2="157.54" style="fill:none;stroke:#263238;stroke-miterlimit:10"></line><line x1="57.27" y1="157.54" x2="73.29" y2="157.54" style="fill:none;stroke:#263238;stroke-miterlimit:10"></line><line x1="70.52" y1="164.02" x2="79.37" y2="164.02" style="fill:none;stroke:#263238;stroke-miterlimit:10"></line><line x1="57.27" y1="164.02" x2="67.74" y2="164.02" style="fill:none;stroke:#263238;stroke-miterlimit:10"></line><line x1="57.27" y1="170.5" x2="79.37" y2="170.5" style="fill:none;stroke:#263238;stroke-miterlimit:10"></line><line x1="76.68" y1="176.98" x2="104.13" y2="176.98" style="fill:none;stroke:#263238;stroke-miterlimit:10"></line><line x1="57.27" y1="176.98" x2="73.29" y2="176.98" style="fill:none;stroke:#263238;stroke-miterlimit:10"></line><line x1="96.09" y1="183.46" x2="104.13" y2="183.46" style="fill:none;stroke:#263238;stroke-miterlimit:10"></line><line x1="57.27" y1="183.46" x2="93.63" y2="183.46" style="fill:none;stroke:#263238;stroke-miterlimit:10"></line><line x1="97.33" y1="189.93" x2="104.13" y2="189.93" style="fill:none;stroke:#263238;stroke-miterlimit:10"></line><line x1="69.59" y1="189.93" x2="95.48" y2="189.93" style="fill:none;stroke:#263238;stroke-miterlimit:10"></line><line x1="57.27" y1="189.93" x2="67.74" y2="189.93" style="fill:none;stroke:#263238;stroke-miterlimit:10"></line><line x1="98.56" y1="196.41" x2="104.13" y2="196.41" style="fill:none;stroke:#263238;stroke-miterlimit:10"></line><line x1="80.07" y1="196.41" x2="95.17" y2="196.41" style="fill:none;stroke:#263238;stroke-miterlimit:10"></line><line x1="57.27" y1="196.41" x2="77.91" y2="196.41" style="fill:none;stroke:#263238;stroke-miterlimit:10"></line><rect x="81.46" y="151.11" width="22.68" height="22.68" style="fill:none;stroke:#263238;stroke-miterlimit:10"></rect><polyline points="81.46 173.78 90.14 164.13 94.48 167.03 100.76 159.79 103.65 161.24" style="fill:none;stroke:#263238;stroke-miterlimit:10"></polyline><circle cx="88.21" cy="157.38" r="3.38" style="fill:none;stroke:#263238;stroke-miterlimit:10"></circle><rect x="52.83" y="224.05" width="57.86" height="61.94" style="fill:#fff;stroke:#263238;stroke-miterlimit:10"></rect><line x1="78.11" y1="259.51" x2="100.84" y2="259.51" style="fill:none;stroke:#263238;stroke-miterlimit:10"></line><line x1="62.04" y1="259.51" x2="75.3" y2="259.51" style="fill:none;stroke:#263238;stroke-miterlimit:10"></line><line x1="94.18" y1="265.99" x2="100.84" y2="265.99" style="fill:none;stroke:#263238;stroke-miterlimit:10"></line><line x1="62.04" y1="265.99" x2="92.14" y2="265.99" style="fill:none;stroke:#263238;stroke-miterlimit:10"></line><line x1="95.2" y1="272.47" x2="100.84" y2="272.47" style="fill:none;stroke:#263238;stroke-miterlimit:10"></line><line x1="72.24" y1="272.47" x2="93.67" y2="272.47" style="fill:none;stroke:#263238;stroke-miterlimit:10"></line><line x1="62.04" y1="272.47" x2="70.71" y2="272.47" style="fill:none;stroke:#263238;stroke-miterlimit:10"></line><line x1="96.22" y1="278.95" x2="100.84" y2="278.95" style="fill:none;stroke:#263238;stroke-miterlimit:10"></line><line x1="80.92" y1="278.95" x2="93.42" y2="278.95" style="fill:none;stroke:#263238;stroke-miterlimit:10"></line><line x1="62.04" y1="278.95" x2="79.13" y2="278.95" style="fill:none;stroke:#263238;stroke-miterlimit:10"></line><rect x="62.33" y="240.66" width="6.13" height="14.84" style="fill:#263238"></rect><rect x="70.42" y="234.02" width="6.13" height="21.48" style="fill:#091F3F;stroke:#263238;stroke-miterlimit:10"></rect><rect x="78.51" y="243.99" width="6.13" height="11.52" style="fill:#263238"></rect><rect x="86.59" y="237.12" width="6.13" height="18.38" style="fill:#091F3F;stroke:#263238;stroke-miterlimit:10"></rect><rect x="94.68" y="231.14" width="6.13" height="24.36" style="fill:#263238"></rect></g><g id="freepik--Character--inject-67"><path d="M263.92,482.26V366.1a7.62,7.62,0,0,0-7.54-7.71H126.92a7.63,7.63,0,0,0-7.54,7.71V482.26Z" style="fill:#d4d4d4;stroke:#263238;stroke-miterlimit:10"></path><path d="M278.34,482.26V366.1a7.63,7.63,0,0,0-7.54-7.71H141.34a7.62,7.62,0,0,0-7.54,7.71V482.26Z" style="fill:#d4d4d4;stroke:#263238;stroke-miterlimit:10"></path><path d="M350.71,482.26V426a5.87,5.87,0,0,0-5.8-5.93H271.77A5.86,5.86,0,0,0,266,426v56.3Z" style="fill:#d4d4d4;stroke:#263238;stroke-miterlimit:10"></path><path d="M350.71,482.26V426.15a5.89,5.89,0,0,0-5.62-6.12H315.51a5.89,5.89,0,0,0-5.62,6.12v56.11Z" style="fill:#d4d4d4;stroke:#263238;stroke-miterlimit:10"></path><path d="M336.54,482.26c-13-8.31-43.94-28.44-50.31-35.87-8.11-9.46-9.8-12.5-16.22-12.16s-72,9.46-72,9.46a28.34,28.34,0,0,0-5.41,12.16c-.84,5.63,6,21.3,8.36,26.41Z" style="fill:#263238;stroke:#263238;stroke-miterlimit:10"></path><path d="M224.06,307.85c1,.06,20.27,2,28,5.41s24.33,7.77,29.74,10.14,8.44,5.06,9.12,12.16,7.1,33.45,8.11,37.84,2.7,23,.68,28.73-26,6.42-26,6.42-.34,9.12,1,14.19,4.73,13.18-6.42,15.2-68.59,14.2-72.65,11.49-2.36-23.65-2.36-28.72-5.07-15.54-5.07-15.54a89,89,0,0,0-14.19,4.73c-5.75,2.7-13.18,1.35-22.64-1.69S141.27,396.38,138.57,391s9.12-13.18,11.48-17.24,18.59-41.22,19.27-45.28,9.79-5.06,22-8.78C191.28,319.68,217.64,307.51,224.06,307.85Z" style="fill:#091F3F;stroke:#263238;stroke-miterlimit:10"></path><path d="M210.57,437.93c8.81-9.66,30.3-32.13,45.87-39.42" style="fill:none;stroke:#263238;stroke-miterlimit:10"></path><path d="M206.56,442.42s.86-1,2.4-2.7" style="fill:none;stroke:#263238;stroke-miterlimit:10"></path><path d="M225.19,417.11c.9-.68,1.8-1.35,2.69-2" style="fill:none;stroke:#263238;stroke-miterlimit:10"></path><path d="M208.27,432.19s5.92-6,12.87-11.84" style="fill:none;stroke:#263238;stroke-miterlimit:10"></path><path d="M175.82,353.51c3,11.29,7.23,26.56,8.87,30.6,2.7,6.62,4.42,17.9,4.42,17.9" style="fill:#fff;stroke:#263238;stroke-miterlimit:10"></path><path d="M172.44,340.72s1,3.75,2.39,9.08" style="fill:#fff;stroke:#263238;stroke-miterlimit:10"></path><path d="M170.6,366.74a14.47,14.47,0,0,0-4.78-2.24" style="fill:none;stroke:#263238;stroke-miterlimit:10"></path><path d="M163.07,372.14c3.69.79,8.15,2.39,10.59,5.6a105.08,105.08,0,0,1,6.38,9.07s.49-4.66-2.94-11.77a25.91,25.91,0,0,0-3.61-5.65" style="fill:none;stroke:#263238;stroke-miterlimit:10"></path><path d="M157,371.37s.95,0,2.42.18" style="fill:none;stroke:#263238;stroke-miterlimit:10"></path><path d="M151.11,377.49s8.83-4.16,17.41-.73" style="fill:none;stroke:#263238;stroke-miterlimit:10"></path><line x1="279.55" y1="350.23" x2="271.96" y2="403.97" style="fill:#fff;stroke:#263238;stroke-miterlimit:10"></line><line x1="281.03" y1="339.74" x2="280.22" y2="345.52" style="fill:#fff;stroke:#263238;stroke-miterlimit:10"></line><path d="M292,373.17a20.16,20.16,0,0,1,5-2.05" style="fill:none;stroke:#263238;stroke-miterlimit:10"></path><path d="M273.43,397.6s.74-5.64,8.09-15.2a35.44,35.44,0,0,1,8.32-7.91" style="fill:none;stroke:#263238;stroke-miterlimit:10"></path><path d="M274.41,398.09s8.09-10.55,17.41-11.53" style="fill:none;stroke:#263238;stroke-miterlimit:10"></path><path d="M220,305.15s-5.74.34-7.1,3.38-1.35,29.06-1.35,29.06,19.6-7.44,22.3-7.44,23.66,8.11,23.66,8.11-2.71-18.92-7.44-26.35-12.84-7.1-15.54-7.1S220,305.15,220,305.15Z" style="fill:#fff;stroke:#263238;stroke-miterlimit:10"></path><path d="M214.93,302.78l1.35,7.1s17.24,33.11,19.26,30.75,12.17-29.4,12.17-29.4l.67-9.46s-8.11,5.41-12.84,5.41-19.26-7.78-19.26-7.78Z" style="fill:#fff;stroke:#263238;stroke-miterlimit:10"></path><path d="M248.38,301.77s-8.11,5.41-12.84,5.41-19.26-7.78-19.26-7.78l-1.35,3.38,1.35,7.1s3.89,7.47,8.19,15.06a15,15,0,0,0,2-.92C245.28,313.47,248.38,301.77,248.38,301.77Z" style="fill:#263238;stroke:#263238;stroke-miterlimit:10"></path><path d="M207.38,276.94s-3.89-7.78-6.61-1.17,8.94,15.55,8.94,15.55Z" style="fill:#fff;stroke:#263238;stroke-miterlimit:10"></path><path d="M253.07,275.2s3.68-7.59,5.63-.59-6,15.93-6,15.93Z" style="fill:#fff;stroke:#263238;stroke-miterlimit:10"></path><path d="M206.6,275s2.73,20.61,4.28,24.11c1.33,3,13.51,13.49,17.07,16.52a3.45,3.45,0,0,0,2.25.82,47.57,47.57,0,0,0,6.79-.33c1.56-.39,12-10,14.32-15.46s1.56-36.93,1.56-36.93-1.17-20.6-3.5-23.32-31.49-2.73-38.88,1.16-7.38,10.5-6.22,14.39S206.6,275,206.6,275Z" style="fill:#fff;stroke:#263238;stroke-miterlimit:10"></path><path d="M239.77,233.82c-12.38-1.95-17.1,1.63-24.22,6.16a20.37,20.37,0,0,0-5.06,1.58c-7.38,3.89-7.38,10.5-6.22,14.39s2.33,19,2.33,19l2.73.39s.38-8.94.77-10.1,5.06-6.61,5.45-9.33-.39-10.5-.39-10.5,4.27,13.61,20.6,18.27a44.16,44.16,0,0,0,12,1.76c.21,2.23.59,4.34,1.27,4.85l1.55,1.17s-.39,5.44.78,6.6a3.13,3.13,0,0,0,1.66.83c.05-5.91,0-11.32-.07-13.79,7.37-1.05,6.27-3.78,6.5-7.08C259.79,252.62,254.54,236.16,239.77,233.82Z" style="fill:#263238;stroke:#263238;stroke-miterlimit:10"></path><path d="M226,291.27a8.3,8.3,0,0,0,4.33,3.43c2.71.72,5.6.9,8.66-3.79" style="fill:none;stroke:#263238;stroke-miterlimit:10"></path><path d="M221.67,297.94s3.43,4.15,10.83,3.79,10.1-3.42,10.1-3.42" style="fill:none;stroke:#263238;stroke-miterlimit:10"></path><path d="M216.8,281.88a12,12,0,0,0,9.38.72" style="fill:none;stroke:#263238;stroke-miterlimit:10"></path><path d="M237.91,282.6a14.19,14.19,0,0,0,11-.18" style="fill:none;stroke:#263238;stroke-miterlimit:10"></path><path d="M215.53,275.93s2.89-4.33,10.65-1.63" style="fill:none;stroke:#263238;stroke-miterlimit:10"></path><path d="M238.09,275.2a8.58,8.58,0,0,1,10.29.73" style="fill:none;stroke:#263238;stroke-miterlimit:10"></path><path d="M226,285s-3.43,2.71-5.05,3.25" style="fill:none;stroke:#263238;stroke-miterlimit:10"></path><path d="M237.55,284.41s3.79,4,6.32,4.87" style="fill:none;stroke:#263238;stroke-miterlimit:10"></path><path d="M270.49,402.25s4.9-3.67,12.75-8.58,15.44-3.43,19.61,1.23,4.66,17.65-1.72,23.29-14.95,4.16-20.34,2.69-12-7.11-12.51-8.33S270.49,402.25,270.49,402.25Z" style="fill:#091F3F;stroke:#263238;stroke-miterlimit:10"></path><path d="M273.68,399.56s2.45-2.95,5.88-3.19,9.56,2.94,11,10.79-2,14.21-6.13,16.17-10.78.74-12.25-1.47a36.74,36.74,0,0,1-2.94-6.37Z" style="fill:#fff;stroke:#263238;stroke-miterlimit:10"></path><path d="M269,391.22s-13.48-11-14.95-11.52-11.77,2.7-11.77,2.7l2.7,10.05s-1.23,1-5.15-2.45-6.37-8.09-7.84-6.62-2.21,4.41,1.22,8.09,8.09,8.58,10.54,12,9.56,5.15,9.56,5.15,1.72,3.18,8.34,6.37,16.91,5.15,16.91,5.15,7.11-7.85,4.41-14.71a8.85,8.85,0,0,0-9.31-5.88l-3.19-.74Z" style="fill:#fff;stroke:#263238;stroke-miterlimit:10"></path><path d="M250.8,377.53s-8-6.51-10.11-6.21-6.7,2.56-8.52,3.83-.19,3.74,2,3.65a29.41,29.41,0,0,0,5.12-.84l1.29-.71,5.83,9.11" style="fill:#fff;stroke:#263238;stroke-miterlimit:10"></path><line x1="240.58" y1="377.25" x2="243.71" y2="375.82" style="fill:#fff;stroke:#263238;stroke-miterlimit:10"></line><path d="M260,377.05s-8-6.5-10.1-6.2-6.71,2.55-8.53,3.83-.19,3.73,2,3.65a29,29,0,0,0,5.12-.85l1.29-.7,5.82,9.1" style="fill:#fff;stroke:#263238;stroke-miterlimit:10"></path><line x1="249.78" y1="376.78" x2="252.91" y2="375.34" style="fill:#fff;stroke:#263238;stroke-miterlimit:10"></line><path d="M267.3,383.62s-3.92-9.56-5.88-10.29-7.11-1-9.31-.74-2,3.19,0,4.17a29,29,0,0,0,4.9,1.71h1.47l.73,10.79" style="fill:#fff;stroke:#263238;stroke-miterlimit:10"></path><line x1="258.48" y1="378.47" x2="261.91" y2="378.72" style="fill:#fff;stroke:#263238;stroke-miterlimit:10"></line><path d="M269.51,400.78s2.21-11.76,1.72-13-4.66-6.62-5.89-6.62-3.67,2.45-2.69,4.9a4,4,0,0,0,2.94,2.7v6.86l-2.21,2.95" style="fill:#fff;stroke:#263238;stroke-miterlimit:10"></path><polygon points="245.02 414.45 201.08 414.45 198.64 361.69 247.46 361.69 245.02 414.45" style="fill:#263238;stroke:#263238;stroke-miterlimit:10"></polygon><path d="M178.44,391.31s-17.23-12.5-18.92-13.17-11.15,3.37-16.56,7.43-5.07,8.11-3,13.18,10.13,11.49,13.18,13.85,17.57,1,17.57,1Z" style="fill:#091F3F;stroke:#263238;stroke-miterlimit:10"></path><path d="M181.82,393s-3.72-5.4-5.41-5.74-6.76,3.38-9.46,6.76-5.41,12.5-5.41,17.23,8.11,6.08,9.46,6.08,3.38-4.05,5.75-5.4S181.82,393,181.82,393Z" style="fill:#fff;stroke:#263238;stroke-miterlimit:10"></path><path d="M232.5,409.85s6.12,0,7.59-1,6.13-7.84,6.87-9.31-2.21-1.47-3.92,1.71-8.34,5.64-10,6.62a25.09,25.09,0,0,1-5.64,1.72Z" style="fill:#fff;stroke:#263238;stroke-miterlimit:10"></path><path d="M178.44,391.31,203.11,394s4-11.49,5.74-11.83a58.76,58.76,0,0,0,10.47-4.73c1.36-1,3.72-2.37,2.37,1.35s-8.79,7.44-8.79,7.44,6.76,4.39,8.79,4.73,16.22-2.71,16.22-2.71,10.47-4,11.49-3.38-1.69,3.38-1.69,3.38,2-1.35,2.7.34-1.69,5.07-1.69,5.07,1,.67.34,3.38-9.8,10.13-11.83,11.49-12.84,1.69-19.93,1.69a116.27,116.27,0,0,1-15.55-1.36s-28.38,4.74-29.73,4.74S163.91,399.76,178.44,391.31Z" style="fill:#fff;stroke:#263238;stroke-miterlimit:10"></path><path d="M247.71,388.27s-13.18,10.14-14.87,10.14-11.83,2.7-11.83,2.7" style="fill:#fff;stroke:#263238;stroke-miterlimit:10"></path><path d="M248.72,393.68s-10.47,9.12-11.49,9.8-10.81,2.36-10.81,2.36" style="fill:#fff;stroke:#263238;stroke-miterlimit:10"></path><path d="M342,482.26c-9.08-14.91-36.85-57.82-54.45-56.14-21.29,2-89.21,29.73-89.21,29.73L321.6,482.26Z" style="fill:#263238;stroke:#263238;stroke-miterlimit:10"></path><path d="M190.93,482.26V426a5.87,5.87,0,0,0-5.8-5.93H141.68a5.87,5.87,0,0,0-5.8,5.93v56.3Z" style="fill:#d4d4d4;stroke:#263238;stroke-miterlimit:10"></path><path d="M205.12,482.26V426.15A5.89,5.89,0,0,0,199.5,420H169.92a5.89,5.89,0,0,0-5.62,6.12v56.11Z" style="fill:#d4d4d4;stroke:#263238;stroke-miterlimit:10"></path></g><g id="freepik--Line--inject-67"><line x1="54.95" y1="482.26" x2="29.1" y2="482.26" style="fill:none;stroke:#263238;stroke-miterlimit:10"></line><line x1="478.42" y1="482.26" x2="66.15" y2="482.26" style="fill:none;stroke:#263238;stroke-miterlimit:10"></line></g></svg>