<svg width="70" height="82" viewBox="0 0 70 82" fill="none" xmlns="http://www.w3.org/2000/svg">
<path d="M70 46.1177V43.3559H64.6154V46.1177H70ZM35 15.7592H37.6923V10.2355H35V15.7592ZM40.3846 12.9974L42.2854 14.9473L44.1915 12.9974L42.2854 11.042L40.3846 12.9974ZM64.6154 46.1177C64.6111 54.1718 61.4889 61.8944 55.9352 67.5874C50.3815 73.2804 42.8512 76.4777 35 76.4762V82C54.3254 82 70 65.9314 70 46.1177H64.6154ZM35 76.4707C27.1497 76.4722 19.6202 73.2757 14.0667 67.5838C8.5132 61.892 5.39033 54.1708 5.38462 46.1177H0C0.0042833 55.6368 3.69384 64.7644 10.2573 71.4933C16.8208 78.2222 25.7207 82.0015 35 82V76.4762V76.4707ZM5.38462 46.1177C5.3889 38.0637 8.51114 30.3411 14.0648 24.6481C19.6184 18.9551 27.1488 15.7578 35 15.7592V10.2355C25.7207 10.234 16.8208 14.0133 10.2573 20.7422C3.69384 27.4711 0.0042833 36.5987 0 46.1177H5.38462ZM27.7146 3.91081L38.4838 14.9473L42.2854 11.042L31.5162 0L27.7146 3.91081ZM38.4838 11.042L27.7146 22.0839L31.5162 25.9892L42.2854 14.9473L38.4838 11.042Z" fill="#34A0A4"/>
<path d="M57 47.5C57 53.4674 54.6295 59.1903 50.4099 63.4099C46.1903 67.6295 40.4674 70 34.5 70C28.5326 70 22.8097 67.6295 18.5901 63.4099C14.3705 59.1903 12 53.4674 12 47.5C12 41.5326 14.3705 35.8097 18.5901 31.5901C22.8097 27.3705 28.5326 25 34.5 25C40.4674 25 46.1903 27.3705 50.4099 31.5901C54.6295 35.8097 57 41.5326 57 47.5ZM34.5 34.8438C34.5 34.4708 34.3518 34.1131 34.0881 33.8494C33.8244 33.5857 33.4667 33.4375 33.0938 33.4375C32.7208 33.4375 32.3631 33.5857 32.0994 33.8494C31.8357 34.1131 31.6875 34.4708 31.6875 34.8438V50.3125C31.6876 50.5604 31.7532 50.8038 31.8776 51.0182C32.0021 51.2325 32.181 51.4102 32.3962 51.5331L42.24 57.1581C42.563 57.3327 42.9416 57.374 43.2946 57.2732C43.6477 57.1724 43.9474 56.9375 44.1296 56.6187C44.3118 56.2999 44.362 55.9224 44.2696 55.5671C44.1772 55.2117 43.9494 54.9065 43.635 54.7169L34.5 49.4969V34.8438Z" fill="#34A0A4"/>
</svg>
